<?xml version="1.0" encoding="utf-8"?>
<!-- Generator: Adobe Illustrator 24.0.0, SVG Export Plug-In . SVG Version: 6.00 Build 0)  -->
<svg version="1.1" id="Layer_1" xmlns="http://www.w3.org/2000/svg" xmlns:xlink="http://www.w3.org/1999/xlink" x="0px" y="0px"
	 viewBox="0 0 900 600" style="enable-background:new 0 0 900 600;" xml:space="preserve">
<style type="text/css">
	.st0{clip-path:url(#SVGID_2_);}
	.st1{fill:none;}
	.st2{fill:#FFFFFF;stroke:#E1E4E5;stroke-width:2.959;}
	.st3{fill:#E1E4E5;}
	.st4{fill:url(#SVGID_3_);}
	.st5{fill:url(#SVGID_4_);}
	.st6{fill:#F8AE9D;}
	.st7{fill:#31446C;}
	.st8{fill:#FFFFFF;}
	.st9{fill:#CC6144;}
	.st10{fill:url(#SVGID_5_);}
	.st11{fill:url(#SVGID_6_);}
	.st12{fill:url(#SVGID_7_);}
	.st13{fill:#E1E4E5;stroke:#FFFFFF;stroke-width:2.882;}
	.st14{fill:url(#SVGID_8_);}
	.st15{fill:url(#SVGID_9_);}
	.st16{fill:url(#SVGID_10_);}
	.st17{fill:url(#SVGID_11_);}
	.st18{fill-rule:evenodd;clip-rule:evenodd;fill:#E4CB73;}
	.st19{fill:none;stroke:#FFFFFF;stroke-width:9.041;stroke-linecap:round;stroke-linejoin:round;}
	.st20{fill:none;stroke:#E1E4E5;stroke-width:4.302;stroke-linecap:round;stroke-linejoin:round;}
	.st21{fill:none;stroke:#E1E4E5;stroke-width:5.308;stroke-linecap:round;stroke-linejoin:round;}
	.st22{fill:#666AF6;}
</style>
<g>
	<defs>
		<rect id="SVGID_1_" width="900" height="600"/>
	</defs>
	<clipPath id="SVGID_2_">
		<use xlink:href="#SVGID_1_"  style="overflow:visible;"/>
	</clipPath>
	<g class="st0">
		<path class="st1" d="M0,0h900v600H0V0z"/>
		<path class="st2" d="M211.1,131h400.5c18.8,0,34,15.2,34,34v246.2c0,18.8-15.2,34-34,34H211.1c-18.8,0-34-15.2-34-34V165
			C177.1,146.2,192.3,131,211.1,131z"/>
		<circle class="st3" cx="213.8" cy="156.4" r="6.9"/>
		<circle class="st3" cx="237.7" cy="156.4" r="6.9"/>
		<circle class="st3" cx="261.5" cy="156.4" r="6.9"/>
		
			<linearGradient id="SVGID_3_" gradientUnits="userSpaceOnUse" x1="345.8204" y1="-162.7248" x2="766.4674" y2="815.5422" gradientTransform="matrix(1 0 0 -1 0 600)">
			<stop  offset="0" style="stop-color:#FFFFFF"/>
			<stop  offset="1" style="stop-color:#EEEEEE"/>
		</linearGradient>
		<path class="st4" d="M737.9,276.1c-5.5-59.5-104.6-58.5-104.6-58.5s-82.5,88.2-101.8,87.3c-19.4-0.9,55.8-89.2,55.8-89.2
			c-36.1-9.9-137.5,18.8-137.5,18.8S435.4,351.7,416.9,346c-18.5-5.7,17.9-103.1,17.9-103.1c-37.4,4.5-77.8,40.2-77.8,40.2
			c-53.2,60.3,27,125.5,27,125.5s-5.8,40.5-38.7,82.4c0,0-7.1,7.6-15.3,21.1l9.7,1.7c1.2-2.4,2.5-4.8,3.9-7.1c0,0,0,0,0,0
			c0,0,0-0.1,0.1-0.1c0.9-1.4,2.3-3.4,3.9-5.7l0,0l0,0c4-5.3,6.7-9.2,8.5-12.1l0,0c12-16.7,28.9-38.1,38.3-41.6c0,0-0.8-1.7-1.3-4.8
			c0.4,1.5,0.8,3.1,1.3,4.8c10.4,38.4,92.3,58.8,140.2,57.3s30-18,8.8-43.5c-21.2-25.5-74.3-29-88.3-39.9c-14-11,10-15.3,40.4-7.6
			c30.4,7.7,40.4,41.2,89.4,54.6c48.9,13.4,103.1-73.6,103.1-73.6c-36.2,4.7-94.5-25-94.8-37.3c-0.3-12.3,90.7,4.8,105.5,3.7
			C713.6,359.8,743.4,335.7,737.9,276.1L737.9,276.1z"/>
		
			<linearGradient id="SVGID_4_" gradientUnits="userSpaceOnUse" x1="286.7674" y1="0.134" x2="311.5584" y2="449.972" gradientTransform="matrix(1 0 0 -1 0 600)">
			<stop  offset="0" style="stop-color:#FFFFFF"/>
			<stop  offset="1" style="stop-color:#EEEEEE"/>
		</linearGradient>
		<path class="st5" d="M229.8,341.7c13.3-21.5,50.6-2.5,50.6-2.5s14.6,48.9,22.2,52.2s-4.4-44.3-4.4-44.3c15.6,3,48.6,33,48.6,33
			s-16.6,47.1-8.5,48.4c8.1,1.3,12.6-42.4,12.6-42.4c13.3,8.7,21.9,29.9,21.9,29.9c8.8,32.9-33.9,42.5-33.9,42.5s-5.4,16.4-0.8,38.5
			c0,0,1.3,4.2,1.8,10.9l-4-1.2c0-1.1-0.1-2.3-0.2-3.4c0,0,0,0,0,0c0,0,0,0,0,0c-0.1-0.7-0.2-1.7-0.4-2.9l0,0v0
			c-0.5-2.8-0.8-4.8-1-6.2l0,0c-1.4-8.6-3.8-19.9-6.7-23c0,0,0.6-0.5,1.4-1.6c-0.4,0.5-0.9,1-1.4,1.6c-11.2,12.6-46,4.9-63.9-4.7
			c-17.9-9.6-8-12.5,4.9-18.1c12.8-5.7,33.6,3,41,1.5c7.4-1.5-0.9-7.7-13.9-10.5c-13-2.8-23.1,8-44.1,3.9s-25.2-47.3-25.2-47.3
			c12.8,8.6,40.5,8.3,42.9,3.7c2.4-4.6-35.3-15.3-40.7-18.5C223.3,378,216.5,363.2,229.8,341.7L229.8,341.7z"/>
		<path class="st6" d="M430.7,304c4.2,6.6,15.3,14.4,23.2,14.3c26.8-0.5,35.6-18.7,38.4-25.3c-0.5-0.1-1.5-0.2-2.1-0.3
			c-4.9-0.7-10-5.6-11.4-11.1c-1.9-7.2-4.2-21.1-3.9-30L441,270.3c0.1,2.6,0.2,5.4,0.5,8.2c0.2,1.7,0.3,3.4,0.5,5.1
			c0.2,1.6,0.4,3.1,0.6,4.5c0.6,4.6-1.4,9.2-5.4,11.8L430.7,304L430.7,304z"/>
		<path class="st7" d="M427.8,231.2c1.8,4.8,1.1,10.2-0.8,15c-1.3,3.4-4.2,0.4-7.9,0.5c-5.6,0.1-10-5.7-13.4-21.2
			c-2.2-11.4-2.7-17.1-2.3-18.2c1.5-3.9,6.7-6,10.9-6.4"/>
		<path class="st6" d="M419.3,197.1c-8.8,10.7-12.1,40.7-4.6,61.6c5.3,14.9,11.5,24.4,18.7,24.1c10.9-0.5,32.1-9.5,39-17
			c12.4-13.5,8.8-40,6.3-56.7c-2.3-15.2-9.4-34.9-28.5-31.1C437.6,180.5,427.2,187.6,419.3,197.1L419.3,197.1z"/>
		<path class="st7" d="M469.3,208.9c-2,2.5-5.4,3.1-8.3,3.6c-3.8,0.7-5.7,2.1-7.7,5.8c-1.3,2.4-2.5,5-4.8,6.3
			c-1.8,1.1-1.8-1.6-2.1-3.7c0-0.2-0.1-0.4-0.1-0.5c-0.4-1.7-2.2-1.4-2.7,0.3c-0.5,1.5-1.5,2.7-2.8,3.4c-0.2,0.1-0.4,0.2-0.7,0.2
			c-0.3,0-0.5-0.3-0.7-0.6c-0.4-0.5-0.8-1.2-1.3-1.9c-1.4-2.4-4.1-1.5-5.6,0.7c-1,1.4-2.1,2.9-3.8,3.2c-0.5,0.1-1.2,0-1.4-0.5
			c-0.3-0.6,0.2-1.2,0.1-1.9c-0.1-0.6-0.3-0.8-0.6-1.3c-1.1-1.9-3.6-2-5.1-0.4c-1.1,1.1-2.2,2.2-3.3,3.2c-0.5,0.4-1.2,0.9-1.7,0.4
			c-0.3-0.2-0.3-0.6-0.4-1c-0.3-1.8-0.5-3.6-0.8-5.4c-0.2-1-0.7-2.3-1.6-2.1c-0.5,0.1-0.7,0.6-1,1c-0.3,0.5-5.8,6.7-5.9,6.2
			c-0.8-3.5-2.6-6.7-3.4-10.2c-5.5-22.5,18.9-40.7,37.5-40.8c4.1,0,7.9,0,11.9,1c4.3,1,8.8,2.7,12.7,4.9c5.4,3.2,9.6,9,8.5,16"/>
		<path class="st7" d="M460.6,201.2c-2.7,3.1-3.4,7.4-3.7,11.4c-0.4,6.1,0.1,12.5,3,17.9c0.8,1.5,1.4,9.2,2.6,8.8
			c0.4-0.1,0.3-6.1,1.4-9.3c1.6-5,9.1-6.9,12.4-3.7c5.4,5,2.2,11.1,0.4,14.8c-1.1,2.3-2.7,4.8-3,7.2c-0.4,3.1-0.5,14.3,1.5,17
			c1.7,2.2,3.5-8.4,5-10.5c11.3-15.6,22.1-55.3,2.8-63.9c-2.9-1.3-12-2-14.7-0.3 M389.3,516.7c-1.1,0.2-2.2,0.3-3.4,0.4
			c-6.2,0.2-12.2-1.2-18.2-2.2c-5.3-0.9-6.8-1.4-6.7-7.8c0.9-50.9,8.4-101.6,21.9-150.7c2.1-7.5,4.3-15,8.2-21.7
			c6.7-11.4,22.1-21.3,34-26.8c1.7-0.8,8.6,3.6,10.3,2.9c1.5-0.7,2.8-1.7,4.3-2.3c4.3-1.9,7.3,2.1,10.9,3.7c1.9,0.8,4,1.4,6,1.3
			c1.7-0.1,3.2-1.1,4.7-0.3c6.9,3.6,24.1-23,24.1-23l7.5,7.7l21.8,22.8l54.4,74.9c0,0,9.9,61.4,16.6,101.6
			c1.2,6.9,5.8,21.9,6.8,27.2c-0.2-1.1-46.4-1.4-48.9-1.4h-94.2c-5.3,0-19.5,2.2-23.2-1.6c-4.6-4.8-9.9-26.6-10.1-32.8
			c-0.9-20.6,0.5-41.1,0.8-61.8c-0.1,8.4-2.5,16.1-3.6,24.3c-1.3,10.6-3.2,21.3-5,31.8c-1.4,8.5-2.7,17-3.8,25.6
			c-0.5,3.9,0.1,6.1-3.1,7.7C398.5,517.4,392.5,516.2,389.3,516.7L389.3,516.7z"/>
		<path class="st6" d="M412.3,499.1c2.5-1,18.1-4.9,25.1-6.3c3.7-0.8,20.3-5.1,24.2-5.1c3.9,0,9.1,5.5,9.1,5.5l-1.4,19
			c-3.7-0.4-8.7,1.5-11.3,1.9c-2.7,0.4-11.7,0.4-17.3-2.4c-0.3-0.2-0.6-0.3-0.9-0.5c-2.2,2-5,3.9-8.2,4.1c0,0-2.4-0.3-2.2-1.2
			c0.1-0.5,1.7-2.9,3.3-5.4c-2.4,2.4-6.3,6.4-10.8,6.6c0,0-2.4-0.3-2.2-1.2c0.1-0.6,2.5-4.1,4.3-6.8c0,0-0.1,0-0.1,0.1
			c-2,1.7-6.7,7.7-12.2,8c0,0-2.4-0.3-2.2-1.2c0.1-0.4,1-1.8,2.1-3.5c-1.6,1.3-3.4,2.4-5.3,3.3c-6,3-9.4,0.7-9.4,0
			C397,513,409.7,500.1,412.3,499.1L412.3,499.1z"/>
		<path class="st7" d="M466.3,477.1c0,0-9.7,5.5-8.8,17.1s4.4,25.2,19,23.7C491,516.6,466.3,477.1,466.3,477.1L466.3,477.1z"/>
		<path class="st7" d="M474.1,516.8c35,12.1,81.8,0.5,111.5-19.6c18.6-12.6,30.5-28.6,28.5-44.3c-5.2-40.6-37.1-133.8-64.7-147.3
			c-18.8-9.2-41.6-13.1-54.3-14.6c-6-0.7-9.7-0.9-9.7-0.9l4.6,13l23.1,65.1c0.9,38.6,28.5,61.5,23,70.5c-5.5,9-48.9,18.6-71.7,34
			C458,476.9,450,507.7,474.1,516.8L474.1,516.8z"/>
		<path class="st8" d="M513,368.1c0,7.3,1,14.7,2.9,21.8c1.9,7.1,4.7,13.9,8,20.5c1.6,3.3,3.4,6.5,5.2,9.7c1.8,3.2,3.6,6.4,5.1,9.6
			c0.7,1.6,1.4,3.3,1.6,5c0.1,0.8,0.1,1.6-0.1,2.3c-0.1,0.4-0.3,0.7-0.4,1c-0.3,0.3-0.4,0.6-0.7,0.9c-2.4,2.4-5.8,4-9,5.5
			c-13.2,6-27.3,10.5-40.6,16.5c-6.7,3-13.3,6.3-19.5,10.3l-1.1,0.8c-0.4,0.3-0.7,0.6-1.1,0.9c-0.7,0.7-1.3,1.4-1.8,2.2
			c-1,1.6-1.6,3.4-2.2,5.1c-1,3.6-1.4,7.2-1.4,10.9c0.2-3.6,0.8-7.3,1.9-10.7c1.1-3.4,2.9-6.8,6.2-8.4c6.2-3.8,12.8-6.9,19.5-9.7
			c6.7-2.8,13.6-5.4,20.4-8c6.8-2.6,13.7-5.1,20.5-8.1c3.3-1.6,6.7-3.2,9.5-6c0.4-0.3,0.6-0.8,1-1.2c0.2-0.5,0.5-1,0.6-1.5
			c0.3-1.1,0.2-2.1,0.1-3.1c-0.3-2-1-3.7-1.8-5.4c-1.6-3.4-3.4-6.6-5.2-9.7c-1.8-3.2-3.6-6.4-5.3-9.6
			C518.5,396.9,513.7,382.8,513,368.1L513,368.1z"/>
		<path class="st7" d="M422.3,309.1c3.3,3.3,18.2,13.9,32.4,13.9c2.5,0,5-0.2,7.5-0.7c11.9-2.2,21.9-10.1,27.8-19.2
			c1.1-1.7,2-3.4,2.8-5.2c1.1-2.3,1.8-4.6,2.3-6.9c-6-0.7-11.7-2.2-12.6-3.3c-1,6.9-9.6,19.5-22.6,21.8c-1.5,0.3-3.1,0.4-4.6,0.5h0
			c-6.1,0.1-10.8-1.8-14-3.8c0,0-6.2-4.9-6.2-4.9L422.3,309.1L422.3,309.1z"/>
		<path class="st8" d="M413,460.3c0-0.6,0-1.3,0-1.9c0-0.7,0.1-1.4,0.2-2.1l0.4-4c0.2-2.7,0.5-5.5,0.7-8.2
			c0.4-5.4,0.7-10.8,0.8-16.3c0.3-10.9,0.1-21.7-0.6-32.6c-0.2-3-0.5-6.1-0.7-9.1c-0.2-1.6-0.3-3.1-0.5-4.7c-0.2-1.5-0.4-3-0.4-4.6
			c0-1,1.4-1,1.6-0.1c0.6,2.6,0.7,5.5,1,8.2c0.3,2.7,0.5,5.4,0.7,8.1c0.4,5.5,0.7,11,0.8,16.4c0.2,10.9-0.2,21.8-1.1,32.7
			c-0.3,3.1-0.6,6.1-0.9,9.2c-0.2,1.6-0.4,3.1-0.6,4.6c-0.1,0.7-0.2,1.4-0.3,2c-0.2,0.8-0.5,1.5-0.6,2.3
			C413.3,460.6,413,460.5,413,460.3L413,460.3z"/>
		<path class="st9" d="M416.1,249c-0.1,0-0.3-0.1-0.1-0.1C416,248.8,416.3,249,416.1,249z"/>
		
			<linearGradient id="SVGID_5_" gradientUnits="userSpaceOnUse" x1="220.7114" y1="242.2617" x2="168.4654" y2="227.9108" gradientTransform="matrix(1 0 0 -1 0 600)">
			<stop  offset="0" style="stop-color:#FFFFFF"/>
			<stop  offset="1" style="stop-color:#EEEEEE"/>
		</linearGradient>
		<path class="st10" d="M208.2,357.8c5,8.9,2.6,22.4,2.6,22.4s-14.4-4-19.5-12.9s-5.4-18.3-0.7-20.9
			C195.3,343.8,203.1,348.9,208.2,357.8L208.2,357.8z"/>
		
			<linearGradient id="SVGID_6_" gradientUnits="userSpaceOnUse" x1="240.5281" y1="306.7912" x2="159.3761" y2="320.5602" gradientTransform="matrix(1 0 0 -1 0 600)">
			<stop  offset="0" style="stop-color:#FFFFFF"/>
			<stop  offset="1" style="stop-color:#EEEEEE"/>
		</linearGradient>
		<path class="st11" d="M223.2,285.2c1.2,15.5-10.7,32.5-10.7,32.5s-17.3-14.7-18.5-30.2c-1.2-15.5,4.3-28.6,12.4-29.2
			C214.5,257.7,222,269.7,223.2,285.2L223.2,285.2z"/>
		
			<linearGradient id="SVGID_7_" gradientUnits="userSpaceOnUse" x1="317.3144" y1="291.0962" x2="273.7774" y2="257.7252" gradientTransform="matrix(1 0 0 -1 0 600)">
			<stop  offset="0" style="stop-color:#FFFFFF"/>
			<stop  offset="1" style="stop-color:#EEEEEE"/>
		</linearGradient>
		<path class="st12" d="M305.6,313.7c8.1,6.4,11,20,11,20s-15,1.8-23.2-4.7c-8.1-6.4-12-15.1-8.6-19.3
			C288.1,305.5,297.5,307.3,305.6,313.7z"/>
		<path class="st3" d="M212.6,433.6v15.2l13.7,16.4h-57.7c-17.5,0-31.6-14.2-31.6-31.6s14.2-31.6,31.6-31.6H181
			C198.5,402,212.6,416.1,212.6,433.6z"/>
		<path class="st8" d="M188.2,433.5c0,3.1,2.5,5.6,5.6,5.6c3.1,0,5.6-2.5,5.6-5.6c0-3.1-2.5-5.6-5.6-5.6
			C190.8,427.9,188.2,430.4,188.2,433.5z M169.1,433.5c0,3.1,2.5,5.6,5.6,5.6c3.1,0,5.6-2.5,5.6-5.6c0-3.1-2.5-5.6-5.6-5.6
			C171.7,427.9,169.1,430.4,169.1,433.5z M150.1,433.5c0,3.1,2.5,5.6,5.6,5.6c3.1,0,5.6-2.5,5.6-5.6c0-3.1-2.5-5.6-5.6-5.6
			C152.6,427.9,150.1,430.4,150.1,433.5z"/>
		<path class="st3" d="M348.9,199l18,44c1.2,3-0.2,6.4-3.2,7.7c0,0,0,0,0,0L287.3,282c-2.3,0.9-5,0.3-6.6-1.5
			c-0.4-0.5-0.8-1.1-1.1-1.7l-18-44c-1.2-3,0.2-6.4,3.2-7.7c0,0,0,0,0,0l76.4-31.3C344.2,194.5,347.6,196,348.9,199L348.9,199z"/>
		<path class="st13" d="M317.4,240.9l48.4,5.3c-0.3,1.4-1.3,2.5-2.6,3.1l-76.4,31.3c-1.3,0.5-2.8,0.4-4-0.3L317.4,240.9L317.4,240.9
			z"/>
		<path class="st13" d="M262.9,234.2L262.9,234.2c-0.9-2.3,0.1-4.9,2.4-5.8c0,0,0,0,0,0h0l76.4-31.3c2-0.8,4.3-0.1,5.5,1.8
			l-29.5,46.3l-54.2-9.4L262.9,234.2L262.9,234.2z"/>
		
			<linearGradient id="SVGID_8_" gradientUnits="userSpaceOnUse" x1="627.4589" y1="71.9609" x2="702.8839" y2="190.1969" gradientTransform="matrix(1 0 0 -1 0 600)">
			<stop  offset="0" style="stop-color:#FFFFFF"/>
			<stop  offset="1" style="stop-color:#EEEEEE"/>
		</linearGradient>
		<path class="st14" d="M668.7,491.5c-10.4,10.6-29.9,8.4-29.9,8.4s-2.6-19.5,7.9-30.1c10.4-10.6,29.9-8.4,29.9-8.4
			S679.1,480.9,668.7,491.5L668.7,491.5z"/>
		
			<linearGradient id="SVGID_9_" gradientUnits="userSpaceOnUse" x1="160.1105" y1="380.6432" x2="141.6015" y2="442.4681" gradientTransform="matrix(1 0 0 -1 0 600)">
			<stop  offset="0" style="stop-color:#FFFFFF"/>
			<stop  offset="1" style="stop-color:#EEEEEE"/>
		</linearGradient>
		<path class="st15" d="M146.4,198c3.3,6,12.2,7.5,12.2,7.5s3.6-8.3,0.3-14.3c-3.3-6-12.2-7.5-12.2-7.5S143.2,192,146.4,198
			L146.4,198z"/>
		
			<linearGradient id="SVGID_10_" gradientUnits="userSpaceOnUse" x1="719.2453" y1="427.555" x2="643.5783" y2="385.84" gradientTransform="matrix(1 0 0 -1 0 600)">
			<stop  offset="0" style="stop-color:#FFFFFF"/>
			<stop  offset="1" style="stop-color:#EEEEEE"/>
		</linearGradient>
		<path class="st16" d="M695.2,196.4c6.9-6,6.3-18.1,6.3-18.1s-11.9-2.4-18.8,3.6c-6.9,6-6.3,18.1-6.3,18.1S688.2,202.4,695.2,196.4
			L695.2,196.4z"/>
		
			<linearGradient id="SVGID_11_" gradientUnits="userSpaceOnUse" x1="679.2194" y1="471.8561" x2="647.7504" y2="419.7551" gradientTransform="matrix(1 0 0 -1 0 600)">
			<stop  offset="0" style="stop-color:#FFFFFF"/>
			<stop  offset="1" style="stop-color:#EEEEEE"/>
		</linearGradient>
		<path class="st17" d="M673,151.2c2.1-6.1-2.5-13.3-2.5-13.3s-8.1,2.7-10.2,8.8c-2.1,6.1,2.5,13.3,2.5,13.3S670.8,157.3,673,151.2z
			"/>
		<path class="st18" d="M721.3,401.9v-50.3c0-2.5-2-4.6-4.6-4.6h-73.1c-2.5,0-4.6,2-4.6,4.6v57.2c0,5.2,5.5,8.6,10.1,6.3l15.4-7.7
			c1-0.5,2-0.7,3.1-0.7l49.1-0.2C719.2,406.4,721.3,404.4,721.3,401.9L721.3,401.9z"/>
		<path class="st19" d="M679.5,376.1c-0.4,0.4-0.4,0.9,0,1.3c0.4,0.4,0.9,0.4,1.3,0s0.4-0.9,0-1.3
			C680.4,375.7,679.8,375.7,679.5,376.1 M695.8,376.1c-0.4,0.4-0.4,0.9,0,1.3c0.4,0.4,0.9,0.4,1.3,0l0,0c0.4-0.4,0.4-0.9,0-1.3
			C696.8,375.7,696.2,375.7,695.8,376.1 M663.1,376.1c-0.4,0.4-0.4,0.9,0,1.3c0.4,0.4,0.9,0.4,1.3,0s0.4-0.9,0-1.3
			C664.1,375.7,663.5,375.7,663.1,376.1"/>
		<path class="st20" d="M232.4,227.4l-9.1,2.5c-9,2.5-18.4-2.8-20.9-11.8s2.8-18.4,11.8-20.9c9-2.5,18.4,2.8,20.9,11.8l0.8,2.7
			c0.6,2.5-0.9,5.1-3.4,5.7c-2.5,0.6-5-0.8-5.7-3.2l-0.8-2.7c-1.1-4-5.3-6.4-9.3-5.3c0,0,0,0,0,0l0,0c-4,1.1-6.4,5.3-5.3,9.3
			c1.1,4,5.3,6.4,9.3,5.3c4-1.1,6.4-5.3,5.3-9.3"/>
		<path class="st3" d="M633.3,294.8c8-5.5,8.8-18.4,8.8-18.4s-12.3-3.9-20.3,1.6c-8,5.5-8.8,18.3-8.8,18.3S625.3,300.3,633.3,294.8
			L633.3,294.8z"/>
		<circle class="st3" cx="645.6" cy="220.3" r="14.6"/>
		<circle class="st3" cx="693.7" cy="306.1" r="8.9"/>
		<path class="st21" d="M708.3,459.3l-13-12.5l13-12.5l13,12.5L708.3,459.3z"/>
		<path class="st22" d="M433.7,524.1h-163l-49-121.9h162.8L433.7,524.1z"/>
		<path class="st22" d="M268.8,519.4h215.3v4.7H270.7L268.8,519.4z"/>
		<path class="st8" d="M306.6,462.8c-2.1-7.3,2.1-13.3,9.4-13.3s14.9,6,17,13.3s-2.1,13.3-9.4,13.3S308.7,470.2,306.6,462.8z"/>
	</g>
</g>
</svg>
