<?xml version="1.0" encoding="utf-8"?>
<!-- Generator: Adobe Illustrator 24.0.0, SVG Export Plug-In . SVG Version: 6.00 Build 0)  -->
<svg version="1.1" id="Layer_1" xmlns="http://www.w3.org/2000/svg" xmlns:xlink="http://www.w3.org/1999/xlink" x="0px" y="0px"
	 viewBox="0 0 900 600" style="enable-background:new 0 0 900 600;" xml:space="preserve">
<style type="text/css">
	.st0{fill:none;}
	.st1{fill:url(#SVGID_1_);}
	.st2{fill:url(#SVGID_2_);}
	.st3{fill-rule:evenodd;clip-rule:evenodd;fill:#3AA9A3;}
	.st4{fill:none;stroke:#FFFFFF;stroke-width:15;stroke-linecap:round;stroke-linejoin:round;}
	.st5{fill-rule:evenodd;clip-rule:evenodd;fill:#666AF6;}
	.st6{fill:url(#SVGID_3_);}
	.st7{fill:url(#SVGID_4_);}
	.st8{fill:url(#SVGID_5_);}
	.st9{fill:#E1E4E5;}
	.st10{fill:#666AF6;}
</style>
<path class="st0" d="M0,0h900v600H0V0z"/>
<linearGradient id="SVGID_1_" gradientUnits="userSpaceOnUse" x1="351.3114" y1="651.2032" x2="468.5645" y2="-222.5578" gradientTransform="matrix(1 0 0 -1 0 600)">
	<stop  offset="0" style="stop-color:#FFFFFF"/>
	<stop  offset="1" style="stop-color:#EEEEEE"/>
</linearGradient>
<path class="st1" d="M575.1,200.2c-15.3-50-147.6-114.4-252.1-34.3c-48.6,37.3-33.5,64-61.5,116.8c-16.7,31.5-46.2,61.5-44.3,97.6
	c1.7,31.2,18,59.4,40.1,73.6c49.7,31.8,128.3,37.2,169.5-56.7C467.9,303.3,614.5,329,575.1,200.2L575.1,200.2z"/>
<linearGradient id="SVGID_2_" gradientUnits="userSpaceOnUse" x1="537.5616" y1="417.8004" x2="563.6465" y2="-190.8906" gradientTransform="matrix(1 0 0 -1 0 600)">
	<stop  offset="0" style="stop-color:#FFFFFF"/>
	<stop  offset="1" style="stop-color:#EEEEEE"/>
</linearGradient>
<path class="st2" d="M679,322.2c-21.2-21.8-53.6-16.9-102.6,1.5c-36.9,13.8-70.6,25.9-102.9,56.7c-22.6,21.5-38.4,46.7-48.6,69.7
	c-11.1,25-27.9,54.6-10.4,74.9c24.2,27.8,121.6,30.6,197.3-36.9C695.1,413.8,699.7,343.4,679,322.2z"/>
<path class="st3" d="M374.5,280.9c-45.6,0-82.5-36.9-82.5-82.5c0-45.6,36.9-82.5,82.5-82.5s82.5,36.9,82.5,82.5
	C457,244,420.1,280.9,374.5,280.9z M374.5,498.9c-45.6,0-82.5-36.7-82.5-82c0-45.3,36.9-82,82.5-82s82.5,36.7,82.5,82
	C457,462.2,420.1,498.9,374.5,498.9z M607.5,280.9c-45.6,0-82.5-36.9-82.5-82.5c0-45.6,36.9-82.5,82.5-82.5s82.5,36.9,82.5,82.5
	C690,244,653.1,280.9,607.5,280.9z"/>
<path class="st4" d="M402,185.9l-34.4,35l-20.6-21 M402,403.9l-34.4,34L347,417.5 M635,185.9l-34.4,35l-20.6-21"/>
<path class="st5" d="M528.4,477.4L477,313.2c-5.4-17.3,12.3-32.8,28.8-25.2L659,359.6c18.1,8.5,15.1,35.2-4.5,39.4l-63.1,13.3
	L568,478.1C561.3,497,534.4,496.5,528.4,477.4L528.4,477.4z"/>
<linearGradient id="SVGID_3_" gradientUnits="userSpaceOnUse" x1="240.2935" y1="83.6273" x2="112.0205" y2="284.7073" gradientTransform="matrix(1 0 0 -1 0 600)">
	<stop  offset="0" style="stop-color:#FFFFFF"/>
	<stop  offset="1" style="stop-color:#EEEEEE"/>
</linearGradient>
<path class="st6" d="M170.1,454.3c17.7,18.1,50.9,14.3,50.9,14.3s4.4-33.1-13.4-51.1c-17.7-18.1-50.9-14.3-50.9-14.3
	S152.4,436.2,170.1,454.3z"/>
<linearGradient id="SVGID_4_" gradientUnits="userSpaceOnUse" x1="544.6967" y1="472.6517" x2="680.9487" y2="593.8837" gradientTransform="matrix(1 0 0 -1 0 600)">
	<stop  offset="0" style="stop-color:#FFFFFF"/>
	<stop  offset="1" style="stop-color:#EEEEEE"/>
</linearGradient>
<path class="st7" d="M609.2,96.3c-16.8,9.6-40.4-0.1-40.4-0.1s3.7-25.3,20.5-34.8c16.8-9.6,40.4,0.1,40.4,0.1S626.1,86.7,609.2,96.3
	L609.2,96.3z"/>
<linearGradient id="SVGID_5_" gradientUnits="userSpaceOnUse" x1="239.3082" y1="405.7327" x2="364.2592" y2="601.6047" gradientTransform="matrix(1 0 0 -1 0 600)">
	<stop  offset="0" style="stop-color:#FFFFFF"/>
	<stop  offset="1" style="stop-color:#EEEEEE"/>
</linearGradient>
<path class="st8" d="M307.6,133.8c-17.3,17.6-49.6,13.9-49.6,13.9s-4.3-32.2,13-49.8C288.3,80.3,320.7,84,320.7,84
	S324.9,116.2,307.6,133.8L307.6,133.8z"/>
<ellipse class="st9" cx="186" cy="313.4" rx="15" ry="15.5"/>
<circle class="st10" cx="628.5" cy="452.5" r="23.5"/>
<circle class="st10" cx="248" cy="229" r="12"/>
<circle class="st9" cx="311.5" cy="318.4" r="5.5"/>
<ellipse class="st9" cx="724.5" cy="359" rx="17.5" ry="17"/>
<circle class="st9" cx="487.5" cy="499.5" r="11.5"/>
<ellipse class="st9" cx="400.5" cy="103.9" rx="5.5" ry="6"/>
<ellipse class="st9" cx="665" cy="286.4" rx="6" ry="5.5"/>
<ellipse class="st9" cx="707" cy="207.4" rx="5" ry="4.5"/>
<ellipse class="st9" cx="211.5" cy="258.4" rx="5.5" ry="4.5"/>
<ellipse transform="matrix(0.2588 -0.9659 0.9659 0.2588 279.6769 597.658)" class="st9" cx="529.3" cy="116.6" rx="11.4" ry="11.4"/>
<path class="st9" d="M231.6,167h-0.2c-0.9,11.9-10.4,12.1-10.4,12.1s10.5,0.2,10.5,13.9c0-13.7,10.5-13.9,10.5-13.9
	S232.5,178.9,231.6,167z M702.1,125h-0.2c-1.5,21.5-16.9,21.8-16.9,21.8s17,0.3,17,25.2c0-24.8,17-25.2,17-25.2
	S703.6,146.5,702.1,125z"/>
</svg>
